# This file uses centimeters as units for non-parametric coordinates.

mtllib Cabinet01.mtl
g default
v 2.787014 -0.080083 1.097171
v -2.787014 -0.080083 1.097171
v 2.787014 0.443630 1.097171
v -2.787014 0.443630 1.097171
v 2.787014 0.443630 -1.097171
v -2.787014 0.443630 -1.097171
v 2.787014 -0.080083 -1.097171
v -2.787014 -0.080083 -1.097171
v 2.787014 0.443630 0.988486
v 2.787014 -0.080083 0.988486
v -2.787014 -0.080083 0.988486
v -2.787014 0.443630 0.988486
v -2.787014 10.776499 0.988486
v 2.787014 10.776499 0.988486
v -2.787014 10.776499 -1.097171
v 2.787014 10.776499 -1.097171
v -2.630301 0.734138 0.988486
v 2.630301 0.734138 0.988486
v -2.630301 10.485991 0.988486
v 2.630301 10.485991 0.988486
v 2.630301 5.808547 0.988486
v -2.630301 5.808547 0.988486
v -0.024191 10.485991 0.988486
v -0.024191 5.808547 0.988486
v -0.024191 0.734138 0.988486
v 2.406487 6.064042 0.988486
v 0.199623 6.064042 0.988486
v 0.199623 10.230494 0.988486
v 2.406487 10.230494 0.988486
v -0.247347 10.244527 0.988486
v -0.247347 6.050012 0.988486
v -2.407145 6.050012 0.988486
v -2.407145 10.244527 0.988486
v 0.193876 0.972178 0.988486
v 2.412234 0.972178 0.988486
v 0.193876 5.570507 0.988486
v 2.412234 5.570507 0.988486
v -0.232620 5.582179 0.988486
v -0.232620 0.960505 0.988486
v -2.421872 0.960505 0.988486
v -2.421872 5.582178 0.988486
v -0.247347 10.244527 0.761546
v -0.247347 6.050012 0.761546
v -2.407145 6.050012 0.761546
v -2.407145 10.244527 0.761546
v -0.232620 5.582179 0.761546
v -0.232620 0.960505 0.761546
v -2.421872 0.960505 0.761546
v -2.421872 5.582178 0.761546
v 2.406487 6.064042 0.761546
v 0.199623 6.064042 0.761546
v 0.199623 10.230494 0.761546
v 2.406487 10.230494 0.761546
v 0.193876 0.972178 0.761546
v 2.412234 0.972178 0.761546
v 0.193876 5.570507 0.761546
v 2.412234 5.570507 0.761546
v -2.787014 0.443630 0.988486
v -2.787014 10.776499 0.988486
v -2.630301 10.485991 0.988486
v -2.630301 5.808547 0.988486
v -2.630301 0.734138 0.988486
v 2.787014 10.776499 0.988486
v 2.630301 10.485991 0.988486
v -0.024191 10.485991 0.988486
v 2.787014 0.443630 0.988486
v 2.630301 0.734138 0.988486
v 2.630301 5.808547 0.988486
v -2.787014 10.776499 1.169796
v 2.787014 10.776499 1.169796
v 2.630301 10.485991 1.169796
v -0.024191 10.485991 1.169796
v -2.630301 10.485991 1.169796
vt 0.656280 0.702556
vt 0.656280 0.555088
vt 0.656280 0.702556
vt 0.656280 0.555088
vt 0.656280 0.702556
vt 0.656280 0.555088
vt 0.656280 0.555088
vt 0.656280 0.702556
vt 0.656280 0.702556
vt 0.656280 0.555088
vt 0.656280 0.629333
vt 0.656280 0.555088
vt 0.656280 0.555088
vt 0.656280 0.555088
vt 0.656280 0.555088
vt 0.656280 0.555088
vt 0.656280 0.702556
vt 0.656280 0.702556
vt 0.656280 0.629333
vt 0.656280 0.702556
vt 0.656280 0.702556
vt 0.656280 0.702556
vt 0.312070 0.001886
vt 0.317976 0.001886
vt 0.317976 0.030341
vt 0.312070 0.030341
vt 0.431296 0.001886
vt 0.431296 0.030341
vt 0.431296 0.591760
vt 0.317976 0.591760
vt 0.552073 0.001886
vt 0.557978 0.001886
vt 0.557978 0.030341
vt 0.552073 0.030341
vt 0.438752 0.001886
vt 0.438752 0.030341
vt 0.552073 0.591760
vt 0.438752 0.591760
vt 0.265972 0.619658
vt 0.493871 0.618582
vt 0.493929 0.630913
vt 0.266030 0.631988
vt 0.493842 0.612447
vt 0.265943 0.613522
vt 0.265885 0.601192
vt 0.493784 0.600117
vt 0.973653 0.255119
vt 0.973653 0.004008
vt 0.985983 0.004008
vt 0.985983 0.255119
vt 0.967517 0.004008
vt 0.967517 0.255119
vt 0.955187 0.255119
vt 0.955187 0.004008
vt 0.693211 0.555088
vt 0.693211 0.781465
vt 0.680881 0.781465
vt 0.680881 0.555088
vt 0.662415 0.781465
vt 0.662415 0.555088
vt 0.674745 0.555088
vt 0.674745 0.781465
vt 0.007713 0.601052
vt 0.257547 0.598923
vt 0.257652 0.611252
vt 0.007818 0.613382
vt 0.257809 0.629718
vt 0.007976 0.631848
vt 0.007871 0.619518
vt 0.257704 0.617388
vt 0.967262 0.372676
vt 0.967262 0.356891
vt 0.977113 0.356891
vt 0.977113 0.372676
vt 0.994654 0.356891
vt 0.994654 0.372676
vt 0.984803 0.372676
vt 0.984803 0.356891
vt 0.941582 0.304742
vt 0.941582 0.001886
vt 0.947487 0.001886
vt 0.947487 0.304742
vt 0.992103 0.854368
vt 0.992103 0.551512
vt 0.998008 0.551512
vt 0.998008 0.854368
vt 0.878782 0.854368
vt 0.878782 0.551512
vt 0.759326 0.854368
vt 0.759326 0.551512
vt 0.872647 0.551512
vt 0.872647 0.854368
vt 0.939070 0.545387
vt 0.939070 0.428038
vt 0.951400 0.428038
vt 0.951400 0.545387
vt 0.970889 0.428038
vt 0.970889 0.545387
vt 0.958559 0.545387
vt 0.958559 0.428038
vt 0.900090 0.546988
vt 0.900090 0.428038
vt 0.912421 0.428038
vt 0.912421 0.546988
vt 0.931910 0.428038
vt 0.931910 0.546988
vt 0.919580 0.546988
vt 0.919580 0.428038
vt 0.929223 0.422499
vt 0.929223 0.307512
vt 0.941048 0.307512
vt 0.941048 0.422499
vt 0.959925 0.307512
vt 0.959925 0.422499
vt 0.948100 0.422499
vt 0.948100 0.307512
vt 0.914900 0.425677
vt 0.914900 0.310091
vt 0.926725 0.310091
vt 0.926725 0.425677
vt 0.909017 0.310091
vt 0.909017 0.425677
vt 0.897192 0.425677
vt 0.897192 0.310091
vt 0.731271 0.551512
vt 0.731271 0.854368
vt 0.721420 0.854368
vt 0.721420 0.551512
vt 0.705434 0.837338
vt 0.705434 0.693111
vt 0.715285 0.693111
vt 0.715285 0.837338
vt 0.705434 0.551512
vt 0.715285 0.551512
vt 0.906501 0.304742
vt 0.906501 0.001886
vt 0.934956 0.001886
vt 0.934956 0.304742
vt 0.001992 0.563305
vt 0.304847 0.563305
vt 0.304847 0.591760
vt 0.001992 0.591760
vt 0.001992 0.001886
vt 0.304847 0.001886
vt 0.132792 0.995216
vt 0.132792 0.767314
vt 0.250141 0.767314
vt 0.250141 0.995216
vt 0.596617 0.001886
vt 0.899473 0.001886
vt 0.890958 0.017671
vt 0.749359 0.017671
vt 0.605132 0.017671
vt 0.879633 0.029970
vt 0.760684 0.029970
vt 0.737511 0.030604
vt 0.616980 0.030604
vt 0.890958 0.293380
vt 0.879633 0.281081
vt 0.749359 0.293380
vt 0.760684 0.281081
vt 0.737511 0.280447
vt 0.605132 0.293380
vt 0.616980 0.280447
vt 0.878833 0.306500
vt 0.761484 0.306500
vt 0.737199 0.307262
vt 0.617293 0.307262
vt 0.890958 0.547521
vt 0.878833 0.534401
vt 0.749359 0.547521
vt 0.761484 0.534401
vt 0.737199 0.533639
vt 0.605132 0.547521
vt 0.617293 0.533639
vt 0.573949 0.001886
vt 0.573949 0.563305
vt 0.565434 0.547521
vt 0.565434 0.293380
vt 0.565434 0.017671
vt 0.753191 0.551512
vt 0.753191 0.854368
vt 0.737407 0.845853
vt 0.737407 0.701626
vt 0.737407 0.560027
vt 0.581026 0.563305
vt 0.581026 0.001886
vt 0.589540 0.017671
vt 0.589540 0.293380
vt 0.589540 0.547521
vt 0.391664 0.995585
vt 0.391664 0.744475
vt 0.510614 0.744475
vt 0.510614 0.995585
vt 0.004636 0.768387
vt 0.124543 0.768387
vt 0.124542 0.994765
vt 0.004636 0.994765
vt 0.260637 0.743728
vt 0.381168 0.743728
vt 0.381168 0.993571
vt 0.260637 0.993571
vn 0.000000 0.000000 1.000000
vn 0.000000 0.000000 1.000000
vn 0.000000 0.000000 1.000000
vn 0.000000 0.000000 1.000000
vn 0.000000 1.000000 0.000000
vn 0.000000 1.000000 0.000000
vn 0.000000 1.000000 0.000000
vn 0.000000 1.000000 0.000000
vn 0.000000 0.000000 -1.000000
vn 0.000000 0.000000 -1.000000
vn 0.000000 0.000000 -1.000000
vn 0.000000 0.000000 -1.000000
vn 0.000000 -1.000000 0.000000
vn 0.000000 -1.000000 0.000000
vn 0.000000 -1.000000 0.000000
vn 0.000000 -1.000000 0.000000
vn -1.000000 0.000000 0.000000
vn -1.000000 0.000000 0.000000
vn -1.000000 0.000000 0.000000
vn -1.000000 0.000000 0.000000
vn 1.000000 0.000000 0.000000
vn 1.000000 0.000000 0.000000
vn 1.000000 0.000000 0.000000
vn 1.000000 0.000000 0.000000
vn 1.000000 0.000000 0.000000
vn 1.000000 0.000000 0.000000
vn 0.000000 -1.000000 0.000000
vn 0.000000 -1.000000 0.000000
vn -1.000000 0.000000 0.000000
vn -1.000000 0.000000 0.000000
vn 0.000000 1.000000 0.000000
vn 0.000000 1.000000 0.000000
vn 0.000000 1.000000 0.000000
vn 0.000000 1.000000 0.000000
vn -0.000000 0.000000 1.000000
vn -0.000000 -0.000000 1.000000
vn -0.000000 -0.000000 1.000000
vn -0.000000 -0.000000 1.000000
vn -1.000000 0.000000 0.000000
vn -1.000000 0.000000 0.000000
vn -1.000000 0.000000 0.000000
vn -1.000000 0.000000 0.000000
vn 0.000000 0.000000 -1.000000
vn 0.000000 0.000000 -1.000000
vn 0.000000 0.000000 -1.000000
vn 0.000000 0.000000 -1.000000
vn 1.000000 0.000000 0.000000
vn 1.000000 0.000000 0.000000
vn 1.000000 0.000000 0.000000
vn 1.000000 0.000000 0.000000
vn 0.000000 0.000000 1.000000
vn 0.000000 -0.000000 1.000000
vn 0.000000 -0.000000 1.000000
vn 0.000000 -0.000000 1.000000
vn 0.000000 0.000000 1.000000
vn -0.000001 0.000000 1.000000
vn -0.000001 0.000000 1.000000
vn 0.000001 -0.000000 1.000000
vn 0.000002 0.000000 1.000000
vn 0.000001 -0.000000 1.000000
vn 0.000000 0.000000 1.000000
vn 0.000000 0.000000 1.000000
vn 0.000000 0.000000 1.000000
vn 0.000000 0.000001 1.000000
vn 0.000000 0.000000 1.000000
vn 0.000001 0.000000 1.000000
vn 0.000001 0.000000 1.000000
vn -0.000001 -0.000000 1.000000
vn -0.000000 -0.000000 1.000000
vn -0.000001 -0.000000 1.000000
vn -0.000000 0.000000 1.000000
vn -0.000000 0.000000 1.000000
vn -0.000000 0.000000 1.000000
vn -0.000000 0.000000 1.000000
vn 0.000000 0.000000 1.000000
vn 0.000000 0.000000 1.000000
vn 0.000000 0.000000 1.000000
vn 0.000000 0.000000 1.000000
vn 0.000000 -0.000000 1.000000
vn 0.000000 -0.000000 1.000000
vn 0.000000 -0.000000 1.000000
vn 0.000000 0.000000 1.000000
vn 0.000000 0.000000 1.000000
vn 0.000000 0.000000 1.000000
vn 0.000000 0.000000 1.000000
vn 0.000000 0.000000 1.000000
vn 0.000000 0.000000 1.000000
vn 0.000000 0.000000 1.000000
vn 0.000000 0.000000 1.000000
vn 0.000000 0.000000 1.000000
vn 0.000000 0.000000 1.000000
vn 0.000000 0.000000 1.000000
vn 0.000000 0.000000 1.000000
vn 0.000000 0.000000 1.000000
vn 0.000000 0.000000 1.000000
vn 0.000000 0.000000 1.000000
vn 0.000000 0.000000 1.000000
vn 0.000000 0.000000 1.000000
vn 0.000000 0.000000 1.000000
vn 0.000000 0.000000 1.000000
vn 0.000001 0.000000 1.000000
vn 0.000001 0.000000 1.000000
vn -0.000000 -0.000000 1.000000
vn -0.000000 -0.000000 1.000000
vn -0.000000 0.000000 1.000000
vn -0.000000 0.000000 1.000000
vn -0.000001 -0.000000 1.000000
vn -0.000001 -0.000000 1.000000
vn -0.000000 -0.000000 1.000000
vn 0.000000 -0.000000 1.000000
vn 0.000000 -0.000000 1.000000
vn -0.000000 -0.000000 1.000000
vn -0.000000 0.000000 1.000000
vn -0.000000 0.000000 1.000000
vn 0.000000 0.000000 1.000000
vn 0.000000 0.000000 1.000000
vn 0.000000 -0.000000 1.000000
vn 0.000000 -0.000000 1.000000
vn -0.000001 0.000000 1.000000
vn -0.000001 0.000000 1.000000
vn 0.000001 0.000000 1.000000
vn 0.000001 0.000000 1.000000
vn 0.000000 0.000000 1.000000
vn 0.000000 0.000000 1.000000
vn 0.000000 0.000000 1.000000
vn 0.000000 0.000000 1.000000
vn 0.000000 -0.000000 1.000000
vn 0.000000 -0.000000 1.000000
vn 0.000001 -0.000000 1.000000
vn 0.000001 -0.000000 1.000000
vn 0.000000 0.000000 1.000000
vn 0.000000 0.000000 1.000000
vn 0.000000 0.000000 1.000000
vn 0.000000 0.000000 1.000000
vn -0.000000 -0.000000 1.000000
vn -0.000000 -0.000000 1.000000
vn -0.000000 0.000000 1.000000
vn 0.000000 0.000000 1.000000
vn 0.000000 0.000000 1.000000
vn 0.000000 0.000000 1.000000
vn 0.000000 0.000000 1.000000
vn 0.000000 0.000000 1.000000
vn -0.000000 -0.000000 1.000000
vn -0.000000 -0.000000 1.000000
vn -0.000000 0.000000 1.000000
vn -0.000000 0.000000 1.000000
vn -1.000000 0.000000 0.000000
vn -1.000000 0.000000 0.000000
vn -1.000000 0.000000 0.000000
vn -1.000000 0.000000 0.000000
vn 0.000000 1.000000 0.000000
vn 0.000000 1.000000 0.000000
vn 0.000000 1.000000 0.000000
vn 0.000000 1.000000 0.000000
vn 1.000000 0.000000 0.000000
vn 1.000000 0.000000 0.000000
vn 1.000000 -0.000000 0.000000
vn 1.000000 -0.000000 0.000000
vn 0.000000 -1.000000 0.000000
vn 0.000000 -1.000000 0.000000
vn 0.000000 -1.000000 0.000000
vn 0.000000 -1.000000 0.000000
vn -1.000000 0.000000 0.000000
vn -1.000000 0.000000 0.000000
vn -1.000000 0.000000 0.000000
vn -1.000000 0.000000 0.000000
vn 0.000000 1.000000 0.000000
vn 0.000000 1.000000 0.000000
vn 0.000000 1.000000 0.000000
vn 0.000000 1.000000 0.000000
vn 1.000000 -0.000000 0.000000
vn 1.000000 -0.000000 0.000000
vn 1.000000 0.000000 0.000000
vn 1.000000 0.000000 0.000000
vn 0.000000 -1.000000 0.000000
vn 0.000000 -1.000000 0.000000
vn 0.000000 -1.000000 0.000000
vn 0.000000 -1.000000 0.000000
vn 0.000000 1.000000 0.000000
vn 0.000000 1.000000 0.000000
vn 0.000000 1.000000 0.000000
vn 0.000000 1.000000 0.000000
vn 1.000000 -0.000000 0.000000
vn 1.000000 -0.000000 0.000000
vn 1.000000 -0.000000 0.000000
vn 1.000000 -0.000000 0.000000
vn 0.000000 -1.000000 0.000000
vn 0.000000 -1.000000 0.000000
vn 0.000000 -1.000000 0.000000
vn 0.000000 -1.000000 0.000000
vn -1.000000 0.000000 0.000000
vn -1.000000 0.000000 0.000000
vn -1.000000 0.000000 0.000000
vn -1.000000 0.000000 0.000000
vn 0.000000 1.000000 0.000000
vn 0.000000 1.000000 0.000000
vn 0.000000 1.000000 0.000000
vn 0.000000 1.000000 0.000000
vn 1.000000 -0.000000 0.000000
vn 1.000000 -0.000000 0.000000
vn 1.000000 -0.000000 0.000000
vn 1.000000 -0.000000 0.000000
vn 0.000000 -1.000000 0.000000
vn 0.000000 -1.000000 0.000000
vn 0.000000 -1.000000 0.000000
vn 0.000000 -1.000000 0.000000
vn -1.000000 0.000000 0.000000
vn -1.000000 0.000000 0.000000
vn -1.000000 -0.000000 0.000000
vn -1.000000 -0.000000 0.000000
vn 0.000000 0.000000 0.000000
vn 0.000000 0.000000 0.000000
vn 0.000000 0.000000 0.000000
vn 0.000000 0.000000 0.000000
vn 0.000000 0.000000 0.000000
vn 0.000000 0.000000 0.000000
vn 0.000000 0.000000 0.000000
vn 0.000000 0.000000 0.000000
vn 0.000000 0.000000 0.000000
vn 0.000000 0.000000 0.000000
vn 0.000000 0.000000 0.000000
vn 0.000000 0.000000 0.000000
vn 0.000000 0.000000 0.000000
vn 0.000000 0.000000 0.000000
vn 0.000000 0.000000 0.000000
vn 0.000000 0.000000 0.000000
vn 0.000000 0.000000 0.000000
vn 0.000000 0.000000 0.000000
vn 0.000000 0.000000 0.000000
vn 0.000000 0.000000 0.000000
vn 0.000000 0.000000 0.000000
vn 0.000000 0.000000 0.000000
vn 0.000000 0.000000 0.000000
vn 0.000000 0.000000 0.000000
vn 0.000000 0.000000 0.000000
vn 0.000000 0.000000 0.000000
vn 0.000000 0.000000 0.000000
vn 0.000000 0.000000 0.000000
vn 0.000000 0.000000 0.000000
vn 0.000000 0.000000 0.000000
vn 0.000000 0.000000 0.000000
vn 0.000000 0.000000 0.000000
vn 0.000000 0.000000 0.000000
vn 0.000000 0.000000 0.000000
vn 0.000000 0.000000 0.000000
vn 0.000000 0.000000 0.000000
vn 0.000000 0.000000 0.000000
vn 0.000000 0.000000 0.000000
vn 0.000000 0.000000 0.000000
vn 0.000000 0.000000 0.000000
vn 0.000000 0.000000 0.000000
vn 0.000000 0.000000 0.000000
vn 0.000000 0.000000 0.000000
vn 0.000000 0.000000 0.000000
vn 0.000000 1.000000 0.000000
vn 0.000000 1.000000 0.000000
vn 0.000000 1.000000 0.000000
vn 0.000000 1.000000 0.000000
vn 0.880109 -0.474772 0.000000
vn 0.880109 -0.474772 0.000000
vn 0.880109 -0.474772 0.000000
vn 0.880109 -0.474772 0.000000
vn 0.000000 -1.000000 0.000000
vn 0.000000 -1.000000 0.000000
vn 0.000000 -1.000000 0.000000
vn 0.000000 -1.000000 0.000000
vn 0.000000 -1.000000 0.000000
vn 0.000000 -1.000000 0.000000
vn -0.880109 -0.474771 0.000000
vn -0.880109 -0.474772 0.000000
vn -0.880109 -0.474772 0.000000
vn -0.880109 -0.474772 0.000000
s 1
g Cabinet
usemtl lambert2SG
f 1/135/1 3/138/2 2/136/3
f 3/138/2 4/137/4 2/136/3
s 2
f 3/79/5 9/82/6 4/80/7
f 9/82/6 12/81/8 4/80/7
s 3
f 5/139/9 7/142/10 6/140/11
f 7/142/10 8/141/12 6/140/11
s 4
f 10/83/13 1/86/14 11/84/15
f 1/86/14 2/85/16 11/84/15
s 5
f 2/23/17 4/26/18 11/24/19
f 4/26/18 12/25/20 11/24/19
s 6
f 10/31/21 9/34/22 1/32/23
f 9/34/22 3/33/24 1/32/23
f 7/35/25 5/36/26 10/31/21
f 5/36/26 9/34/22 10/31/21
s 4
f 7/87/27 10/83/13 8/88/28
f 10/83/13 11/84/15 8/88/28
s 5
f 12/25/20 6/28/29 11/24/19
f 6/28/29 8/27/30 11/24/19
s 7
f 14/89/31 16/92/32 13/90/33
f 16/92/32 15/91/34 13/90/33
s 8
f 42/145/35 45/148/36 43/146/37
f 45/148/36 44/147/38 43/146/37
s 9
f 12/25/39 13/30/40 6/28/41
f 13/30/40 15/29/42 6/28/41
s 10
f 6/140/43 15/144/44 5/139/45
f 15/144/44 16/143/46 5/139/45
s 11
f 5/36/47 16/38/48 9/34/49
f 16/38/48 14/37/50 9/34/49
s 12
f 9/149/51 18/153/52 12/150/53
f 18/153/52 25/152/54 12/150/53
f 12/150/53 25/152/54 17/151/55
s 13
f 58/176/56 62/180/57 59/177/58
f 62/180/57 61/179/59 59/177/58
f 59/177/58 61/179/59 60/178/60
s 14
f 69/181/61 73/185/62 70/182/63
f 73/185/62 72/184/64 70/182/63
f 70/182/63 72/184/64 71/183/65
s 15
f 63/186/66 64/190/67 66/187/68
f 64/190/67 68/189/69 66/187/68
f 66/187/68 68/189/69 67/188/70
s 16
f 46/191/71 49/194/72 47/192/73
f 49/194/72 48/193/74 47/192/73
s 17
f 50/195/75 53/198/76 51/196/77
f 53/198/76 52/197/78 51/196/77
s 18
f 55/199/79 57/202/80 54/200/81
f 57/202/80 56/201/82 54/200/81
s 19
f 21/163/83 26/168/84 24/160/85
f 26/168/84 27/167/86 24/160/85
s 20
f 24/160/87 27/167/88 23/171/89
f 27/167/88 28/173/90 23/171/89
s 21
f 23/171/91 28/173/92 20/174/93
f 28/173/92 29/175/94 20/174/93
s 22
f 20/174/95 29/175/96 21/163/97
f 29/175/96 26/168/98 21/163/97
s 23
f 23/171/99 30/172/100 24/160/101
f 30/172/100 31/166/102 24/160/101
s 24
f 24/160/103 31/166/104 22/158/105
f 31/166/104 32/165/106 22/158/105
s 25
f 22/158/107 32/165/108 19/169/109
f 32/165/108 33/170/110 19/169/109
s 26
f 19/169/111 33/170/112 23/171/113
f 33/170/112 30/172/114 23/171/113
s 27
f 18/153/115 35/157/116 25/152/117
f 35/157/116 34/156/118 25/152/117
s 28
f 25/152/119 34/156/120 24/160/121
f 34/156/120 36/162/122 24/160/121
s 29
f 24/160/123 36/162/124 21/163/125
f 36/162/124 37/164/126 21/163/125
s 30
f 21/163/127 37/164/128 18/153/129
f 37/164/128 35/157/130 18/153/129
s 31
f 24/160/131 38/161/132 25/152/133
f 38/161/132 39/155/134 25/152/133
s 32
f 25/152/135 39/155/136 17/151/137
f 39/155/136 40/154/138 17/151/137
s 33
f 17/151/139 40/154/140 22/158/141
f 40/154/140 41/159/142 22/158/141
s 34
f 22/158/143 41/159/144 24/160/145
f 41/159/144 38/161/146 24/160/145
s 35
f 30/39/147 42/42/148 31/40/149
f 42/42/148 43/41/150 31/40/149
s 36
f 31/93/151 43/96/152 32/94/153
f 43/96/152 44/95/154 32/94/153
s 37
f 32/43/155 44/46/156 33/44/157
f 44/46/156 45/45/158 33/44/157
s 38
f 33/97/159 45/100/160 30/98/161
f 45/100/160 42/99/162 30/98/161
s 39
f 38/47/163 46/50/164 39/48/165
f 46/50/164 47/49/166 39/48/165
s 40
f 39/101/167 47/104/168 40/102/169
f 47/104/168 48/103/170 40/102/169
s 41
f 40/51/171 48/54/172 41/52/173
f 48/54/172 49/53/174 41/52/173
s 42
f 41/105/175 49/108/176 38/106/177
f 49/108/176 46/107/178 38/106/177
s 43
f 26/109/179 50/112/180 27/110/181
f 50/112/180 51/111/182 27/110/181
s 44
f 27/55/183 51/58/184 28/56/185
f 51/58/184 52/57/186 28/56/185
s 45
f 28/113/187 52/116/188 29/114/189
f 52/116/188 53/115/190 29/114/189
s 46
f 29/59/191 53/62/192 26/60/193
f 53/62/192 50/61/194 26/60/193
s 47
f 35/117/195 55/120/196 34/118/197
f 55/120/196 54/119/198 34/118/197
s 48
f 34/63/199 54/66/200 36/64/201
f 54/66/200 56/65/202 36/64/201
s 49
f 36/121/203 56/124/204 37/122/205
f 56/124/204 57/123/206 37/122/205
s 50
f 37/67/207 57/70/208 35/68/209
f 57/70/208 55/69/210 35/68/209
s 51
f 58/12/211 59/13/212 12/2/213
f 12/2/213 59/13/212 13/4/214
s 52
f 60/14/215 61/15/216 19/7/217
f 19/7/217 61/15/216 22/10/218
s 53
f 61/15/219 62/16/220 22/10/221
f 22/10/221 62/16/220 17/6/222
s 54
f 62/16/223 58/12/224 17/6/225
f 17/6/225 58/12/224 12/2/226
s 55
f 59/13/227 63/17/228 13/4/229
f 13/4/229 63/17/228 14/3/230
s 56
f 64/18/231 65/19/232 20/8/233
f 20/8/233 65/19/232 23/11/234
s 57
f 65/19/235 60/14/236 23/11/237
f 23/11/237 60/14/236 19/7/238
s 58
f 63/17/239 66/20/240 14/3/241
f 14/3/241 66/20/240 9/1/242
s 59
f 66/20/243 67/21/244 9/1/245
f 9/1/245 67/21/244 18/5/246
s 60
f 67/21/247 68/22/248 18/5/249
f 18/5/249 68/22/248 21/9/250
s 61
f 68/22/251 64/18/252 21/9/253
f 21/9/253 64/18/252 20/8/254
s 62
f 59/125/255 69/128/256 63/126/257
f 69/128/256 70/127/258 63/126/257
s 63
f 63/71/259 70/74/260 64/72/261
f 70/74/260 71/73/262 64/72/261
s 64
f 64/129/263 71/132/264 65/130/265
f 71/132/264 72/131/266 65/130/265
f 65/130/265 72/131/266 60/133/267
f 72/131/266 73/134/268 60/133/267
s 65
f 60/75/269 73/78/270 59/76/271
f 73/78/270 69/77/272 59/76/271
